<?xml version="1.0" encoding="utf-8"?>
<!-- Generator: Adobe Illustrator 16.0.0, SVG Export Plug-In . SVG Version: 6.00 Build 0)  -->
<!DOCTYPE svg PUBLIC "-//W3C//DTD SVG 1.1//EN" "http://www.w3.org/Graphics/SVG/1.1/DTD/svg11.dtd">
<svg version="1.1" id="Layer_1" xmlns="http://www.w3.org/2000/svg" xmlns:xlink="http://www.w3.org/1999/xlink" x="0px" y="0px"
	 width="737.977px" height="737.676px" viewBox="0 0 737.977 737.676" enable-background="new 0 0 737.977 737.676"
	 xml:space="preserve">
<g>
	<path fill="#E56520" d="M116.246,230.354c0,0,89.161-13.426,114.493,47.871l7.093,22.802l0.253,8.864l-14.693,17.225
		c0,0,9.371-21.785-10.386-26.345c-19.757-4.56-27.607,15.704-41.034,15.704c0,0,1.773-1.772,9.624-8.61
		c0,0-44.327,17.982-65.35,18.745c-21.027,0.756-46.778-20.856-56.912-34.706C59.334,291.904,55.958,245.804,116.246,230.354"/>
	<path fill="#3C8C37" d="M429.836,249.026c0,0-31.076-27.019-96.258,26.682c-65.182,53.701-93.213,203.661-22.288,222.233
		c0,0,29.046,4.729,68.224-15.197c0,0-57.415-5.066-35.463-73.627c0,0,13.847-46.271,49.309-72.953
		C428.823,309.483,435.579,267.604,429.836,249.026"/>
	<path fill="#FFFFFF" d="M231.247,288.867c0,0-1.632-1.475-4.778-3.635c-1.581-1.072-3.534-2.325-5.85-3.618
		c-2.332-1.271-4.991-2.642-7.977-3.954c-2.992-1.293-6.273-2.607-9.849-3.689c-1.766-0.601-3.639-1.033-5.52-1.561
		c-1.917-0.407-3.842-0.955-5.85-1.289c-3.979-0.839-8.168-1.277-12.411-1.693c-4.26-0.29-8.598-0.455-12.933-0.279l-3.251,0.107
		c-1.084,0.041-2.161,0.164-3.238,0.239c-1.079,0.088-2.154,0.174-3.227,0.26c-1.066,0.134-2.131,0.271-3.19,0.406
		c-1.061,0.141-2.117,0.272-3.168,0.408c-1.045,0.176-2.086,0.355-3.118,0.53c-1.031,0.175-2.06,0.348-3.08,0.522
		c-1.012,0.216-2.017,0.431-3.013,0.646c-3.999,0.809-7.803,1.848-11.427,2.798c-3.573,1.104-6.986,2.061-10.05,3.21
		c-1.546,0.543-3.024,1.063-4.433,1.559c-1.391,0.539-2.711,1.051-3.952,1.532c-1.239,0.482-2.4,0.934-3.476,1.35
		c-1.067,0.433-2.028,0.874-2.908,1.251c-3.521,1.504-5.531,2.365-5.531,2.365s1.952-0.992,5.368-2.722
		c0.86-0.425,1.799-0.916,2.848-1.406c1.053-0.475,2.191-0.987,3.408-1.534c1.22-0.546,2.517-1.132,3.885-1.746
		c1.396-0.545,2.864-1.119,4.396-1.72c3.045-1.252,6.448-2.327,10.019-3.556c3.62-1.071,7.43-2.264,11.467-3.127
		c1.003-0.229,2.016-0.464,3.038-0.7c1.032-0.193,2.066-0.386,3.112-0.582c1.043-0.194,2.097-0.388,3.148-0.585
		c1.065-0.145,2.137-0.288,3.209-0.432c1.074-0.143,2.157-0.286,3.238-0.433c1.088-0.094,2.18-0.186,3.274-0.28
		c1.093-0.084,2.187-0.212,3.289-0.257l3.301-0.13c4.409-0.151,8.826,0.036,13.154,0.354c4.321,0.433,8.568,0.996,12.604,1.902
		c2.034,0.379,3.994,0.938,5.922,1.43c1.898,0.6,3.779,1.102,5.558,1.768c3.589,1.21,6.875,2.648,9.859,4.05
		c5.969,2.848,10.526,5.971,13.582,8.286C229.739,287.264,231.247,288.867,231.247,288.867"/>
	<path fill="#FFFFFF" d="M208.952,462.886c0,0-36.729,23.557-53.446,23.053C155.506,485.939,165.892,495.058,208.952,462.886"/>
	<path fill="#FFFFFF" d="M111.302,328.743c0,0,0.882-0.521,2.438-1.319c0.782-0.397,1.721-0.896,2.82-1.4
		c1.081-0.546,2.329-1.089,3.673-1.721c1.36-0.593,2.813-1.278,4.396-1.896c1.589-0.607,3.31-1.145,5.083-1.746
		c1.788-0.569,3.55-1.35,5.286-2.25c1.725-0.92,3.391-2.021,5.003-3.187l2.375-1.792c0.799-0.582,1.604-1.139,2.374-1.731
		c1.547-1.175,3.135-2.234,4.55-3.411c1.431-1.158,2.903-2.159,4.19-3.236c1.301-1.065,2.649-1.939,3.753-2.906
		c1.137-0.933,2.188-1.785,3.148-2.522c0.938-0.756,1.694-1.476,2.381-2.026c1.337-1.119,2.157-1.733,2.157-1.733l0.234,0.191
		c0,0-0.508,0.868-1.488,2.353c-0.499,0.73-1.075,1.66-1.859,2.612c-0.792,0.947-1.724,1.989-2.741,3.126
		c-1.028,1.135-2.276,2.204-3.568,3.382c-0.649,0.58-1.325,1.171-2.08,1.688c-0.737,0.541-1.484,1.098-2.271,1.631
		c-1.53,1.123-3.255,2.066-4.943,3.108c-1.685,1.05-3.567,1.83-5.376,2.709c-1.849,0.806-3.673,1.636-5.409,2.565
		c-1.775,0.846-3.399,1.923-5.018,2.892c-1.603,1.008-3.15,1.998-4.716,2.732c-1.538,0.791-3.097,1.298-4.502,1.842
		c-2.847,0.999-5.29,1.617-7.035,1.939c-1.735,0.349-2.767,0.397-2.767,0.397L111.302,328.743z"/>
	<path fill="#FFFFFF" d="M426.459,251.041c0,0-3.488,2.969-9.393,8.363c-5.934,5.372-14.184,13.291-23.788,23.068
		c-9.611,9.768-20.364,21.613-31.131,34.899c-5.398,6.629-10.691,13.704-15.834,21.047c-5.133,7.35-10.028,15.035-14.408,22.997
		c-4.42,7.938-8.385,16.13-11.491,24.496c-1.608,4.166-2.89,8.398-4.1,12.588c-1.066,4.226-2.063,8.429-2.616,12.622
		c-1.257,8.373-1.324,16.619-0.22,24.291c1.07,7.67,3.339,14.736,6.322,20.828c2.961,6.111,6.506,11.293,10.027,15.562
		c0.435,0.541,0.863,1.068,1.279,1.592c0.438,0.508,0.896,0.984,1.326,1.467c0.877,0.957,1.721,1.881,2.531,2.764
		c1.715,1.682,3.303,3.223,4.759,4.582c1.514,1.307,2.865,2.475,4.039,3.484c1.18,1.01,2.256,1.779,3.092,2.449
		c1.695,1.314,2.6,2.016,2.6,2.016s-0.938-0.652-2.695-1.881c-0.87-0.631-1.989-1.348-3.223-2.295
		c-1.224-0.967-2.629-2.076-4.201-3.326c-1.515-1.312-3.171-2.803-4.958-4.436c-0.853-0.863-1.738-1.756-2.659-2.691
		c-0.456-0.467-0.938-0.93-1.396-1.432c-0.445-0.512-0.898-1.033-1.358-1.561c-0.896-1.078-1.92-2.119-2.8-3.326
		c-0.899-1.189-1.825-2.418-2.775-3.678c-0.857-1.324-1.74-2.684-2.641-4.076c-0.844-1.432-1.632-2.936-2.477-4.453
		c-3.201-6.162-5.702-13.373-6.984-21.252c-0.159-0.988-0.315-1.98-0.473-2.979c-0.096-1.006-0.193-2.018-0.285-3.035
		c-0.253-2.039-0.229-4.111-0.323-6.205c-0.015-4.188,0.231-8.471,0.841-12.779c0.521-4.318,1.487-8.631,2.527-12.977
		c1.178-4.302,2.452-8.64,4.089-12.889c3.139-8.538,7.131-16.885,11.585-24.945c4.475-8.055,9.453-15.809,14.664-23.206
		c5.199-7.407,10.673-14.438,16.171-21.058c10.989-13.255,22.162-24.806,31.992-34.414c9.829-9.614,18.5-17.107,24.6-22.301
		C422.805,253.797,426.459,251.041,426.459,251.041"/>
	<path fill="#FFFFFF" d="M308.505,283.548c0,0-0.497,3.712-1.241,9.28c-0.39,2.776-0.841,6.012-1.325,9.479
		c-0.238,1.733-0.482,3.523-0.731,5.343c-0.234,1.82-0.471,3.67-0.708,5.517c-0.214,1.85-0.482,3.697-0.653,5.519
		c-0.159,1.824-0.43,3.613-0.544,5.354c-0.134,1.734-0.33,3.412-0.394,5.009c-0.095,1.594-0.207,3.1-0.207,4.49
		c-0.024,1.394-0.091,2.675-0.016,3.8c0.069,1.126,0.008,2.138,0.169,2.931c0.225,1.607,0.332,2.551,0.332,2.551
		s-0.278-0.884-0.722-2.488c-0.26-0.791-0.32-1.787-0.529-2.929c-0.221-1.134-0.317-2.423-0.4-3.837
		c-0.128-1.416-0.149-2.945-0.142-4.565c-0.032-1.624,0.04-3.325,0.128-5.087c0.063-1.762,0.217-3.58,0.377-5.423
		c0.155-1.845,0.396-3.706,0.593-5.575c0.264-1.858,0.521-3.717,0.781-5.543c0.283-1.828,0.6-3.615,0.906-5.347
		c0.637-3.457,1.299-6.674,1.943-9.41c0.617-2.744,1.257-5.002,1.668-6.59C308.22,284.442,308.505,283.548,308.505,283.548"/>
	<path fill="#FFFFFF" d="M366.004,379.381c0,0-0.585,0.148-1.579,0.49c-0.492,0.181-1.102,0.371-1.771,0.664
		c-0.679,0.271-1.427,0.616-2.242,0.99c-1.626,0.756-3.461,1.764-5.336,2.981c-0.958,0.576-1.893,1.255-2.836,1.955
		c-0.964,0.666-1.832,1.491-2.762,2.232c-0.903,0.778-1.764,1.605-2.631,2.394c-0.807,0.849-1.601,1.693-2.368,2.503
		c-0.72,0.861-1.416,1.69-2.074,2.475c-0.677,0.776-1.194,1.599-1.741,2.316c-0.52,0.73-1.049,1.373-1.423,2
		c-0.395,0.617-0.738,1.158-1.028,1.595c-0.583,0.878-0.916,1.383-0.916,1.383s0.27-0.539,0.747-1.479
		c0.239-0.473,0.536-1.038,0.876-1.695c0.317-0.668,0.78-1.358,1.272-2.123c0.504-0.75,0.988-1.615,1.625-2.442
		c0.625-0.829,1.277-1.724,1.997-2.6c0.764-0.849,1.561-1.717,2.363-2.6c0.871-0.821,1.729-1.685,2.64-2.492
		c0.966-0.741,1.868-1.566,2.864-2.229c0.98-0.698,1.943-1.368,2.937-1.939c0.948-0.625,1.953-1.094,2.878-1.573
		c0.944-0.444,1.842-0.853,2.689-1.184c0.847-0.342,1.634-0.612,2.345-0.82c0.699-0.228,1.331-0.365,1.84-0.503
		C365.403,379.444,366.004,379.381,366.004,379.381"/>
	<path fill="#FFFFFF" d="M363.979,238.712c0,0-2.158,5.323-5.495,13.224c-1.658,3.954-3.598,8.564-5.671,13.503
		c-1.025,2.47-2.087,5.024-3.159,7.618c-1.08,2.594-2.159,5.238-3.2,7.887c-1.069,2.643-2.129,5.29-3.117,7.913
		c-0.985,2.625-1.992,5.19-2.885,7.708c-1.814,5.015-3.386,9.737-4.569,13.834c-0.569,2.052-1.076,3.938-1.466,5.624
		c-0.362,1.693-0.701,3.17-0.865,4.404c-0.097,0.616-0.18,1.167-0.255,1.647c-0.046,0.483-0.087,0.892-0.122,1.228
		c-0.063,0.67-0.102,1.026-0.102,1.026s-0.021-0.356-0.061-1.029c-0.051-0.672-0.12-1.665-0.064-2.926
		c0-1.268,0.132-2.794,0.32-4.542c0.202-1.757,0.501-3.716,0.919-5.843c0.418-2.123,0.926-4.411,1.564-6.807
		c0.63-2.394,1.332-4.909,2.165-7.479c0.827-2.565,1.675-5.225,2.671-7.874c0.968-2.659,1.996-5.343,3.05-8.012
		c1.082-2.664,2.201-5.306,3.315-7.903c1.112-2.597,2.293-5.114,3.417-7.557c2.279-4.871,4.53-9.362,6.546-13.162
		C360.916,243.576,363.979,238.712,363.979,238.712"/>
	<path fill="#5774B8" d="M640.21,375.252c-13.959,12.452-79.516,60.698-224.052,23.04c-129.52-33.727-159.25,2.524-165.856,17.465
		c-0.323,0.691-0.577,1.354-0.778,1.949c-0.188-0.018-0.356-0.066-0.492-0.17c0.152-0.609,0.355-1.287,0.625-2.033
		c1.762-4.996,6.1-12.654,16.704-21.379c3.778-3.118,8.369-6.386,13.908-9.707c3.523-2.102,7.437-4.234,11.773-6.385
		c0,0,73.451-43.588,225.945,2.015c0,0,53.529,17.263,98.439,4.744c3.895-1.085,7.723-2.39,11.451-3.964
		c4.115-1.728,8.098-3.762,11.891-6.149C640.144,374.442,640.531,374.947,640.21,375.252z"/>
	<path fill="#4AA6DD" d="M616.427,384.792c-32.693,16.362-95.576,33.153-198.573,6.318c-72.958-19.007-114.258-15.806-137.584-6.692
		c3.523-2.102,7.437-4.234,11.773-6.385c0,0,73.451-43.588,225.945,2.015C517.988,380.047,571.517,397.31,616.427,384.792z"/>
	<path fill="#5774B8" d="M542.23,415.826c-0.357,0-0.391-0.525-0.035-0.576c6.082-0.678,16.787-2.068,29.525-4.625
		c43.656-8.774,110.977-31.138,95.527-84.648c0-0.037-0.02-0.052-0.02-0.086c-0.117-0.406,0.424-0.677,0.645-0.304
		C676.666,339.036,719.218,416.082,542.23,415.826z"/>
	<path fill="#4AA6DD" d="M571.72,410.625c43.656-8.774,110.977-31.138,95.527-84.648
		C678.003,345.574,697.824,402.543,571.72,410.625z"/>
	<path fill="#5774B8" d="M655.369,451.449c0.139,0.424-0.369,0.781-0.691,0.459c-6.215-6.217-36.709-31.238-123.525-29.34
		c-0.525,0.018-0.594-0.764-0.07-0.812c3.932-0.408,8.912-0.865,14.637-1.254c34.066-2.252,93.898-1.729,108.316,27.746
		C654.523,449.283,654.982,450.349,655.369,451.449z"/>
	<path fill="#4AA6DD" d="M654.035,448.248c-8.709-7.605-37.693-27.004-108.316-27.746
		C579.785,418.25,639.617,418.773,654.035,448.248z"/>
	<path fill="#94C121" d="M486.24,453.699c-27.699,36.143-98.955,69.908-174.952,44.244c0,0,59.619,0.336,92.544-38.16
		c17.105-20.002,33.043-51.381,37.137-65.106c0.031-0.056,0.049-0.125,0.059-0.185c0-0.011,0.01-0.023,0.01-0.03
		c0.08-0.109,0.219-0.195,0.377-0.195c0.215,0,0.392,0.154,0.442,0.363c0,0,0.01,0.017,0,0.038v0.14c0,0.009,0,0.009-0.01,0.009
		c-0.284,7.767-1.083,20.209-3.229,26.461c-3.602,10.473,12.472-25.713,12.843-43.006c0-0.091,0.148-0.091,0.16,0
		c0.424,4.546,1.428,18.031-0.5,28.819c-2.344,13.022,10.492-43.889,2.32-56.638c-0.215-0.333-0.146-0.758,0.158-0.992
		c0.697-0.533,2.373-1.017,6.111,0.945c0.199,0.107,0.445-0.061,0.387-0.286c-0.729-3.022-4.529-17.188-11.773-19.4
		c-0.098-0.032-0.189-0.06-0.287-0.081c-0.049-0.048-0.076-0.118-0.076-0.196c0-0.118,0.068-0.217,0.166-0.266c0,0,0,0,0.008,0
		h0.207c0.012,0,0.012,0,0.012,0c1.281-0.041,3.041,0.107,4.873,0.924c0.215,0.099,0.451-0.107,0.346-0.333
		c-2.168-4.284-14.603-27.267-27.052-15.761c-0.1,0.091-0.227-0.019-0.166-0.135c0.754-1.391,2.736-3.948,9.016-5.603
		c0.451-0.116,0.924-0.215,1.428-0.303c36.972-6.459,56.339,18.221,60.093,22.174C523.595,359.249,510.798,421.662,486.24,453.699z"
		/>
	<path fill="#FFFFFF" d="M425.786,480.025c0,0,2.008-1.15,5.332-3.459c1.676-1.131,3.652-2.59,5.893-4.299
		c2.201-1.75,4.684-3.723,7.282-6.008c1.326-1.111,2.621-2.363,4.004-3.609c1.328-1.309,2.758-2.598,4.119-4.045
		c2.805-2.793,5.539-5.943,8.348-9.217c2.721-3.342,5.457-6.863,7.967-10.621c2.582-3.713,4.881-7.695,7.092-11.721
		c1.012-2.059,2.115-4.07,3.045-6.162c0.896-2.102,1.912-4.143,2.664-6.273c0.807-2.115,1.633-4.199,2.277-6.316
		c0.344-1.054,0.686-2.103,1.025-3.138c0.32-1.049,0.568-2.104,0.854-3.144c0.277-1.04,0.555-2.073,0.824-3.094
		c0.246-1.027,0.432-2.059,0.662-3.07c0.434-2.03,0.883-4.011,1.135-5.973c0.266-1.957,0.664-3.848,0.801-5.706
		c0.17-1.854,0.34-3.644,0.5-5.362c0.105-1.724,0.121-3.382,0.199-4.957c0.078-1.574,0.148-3.072,0.09-4.477
		c-0.02-1.407-0.035-2.725-0.057-3.94c-0.01-0.61-0.018-1.197-0.023-1.753c-0.043-0.557-0.082-1.088-0.113-1.593
		c-0.271-4.039-0.426-6.349-0.426-6.349s0.297,2.293,0.822,6.316c0.057,0.508,0.119,1.034,0.188,1.59
		c0.037,0.562,0.074,1.147,0.113,1.758c0.076,1.221,0.162,2.539,0.254,3.953c0.123,1.411,0.131,2.92,0.125,4.505
		c0,1.59,0.016,3.262-0.033,5.006c-0.111,1.74-0.223,3.554-0.342,5.432c-0.08,1.882-0.426,3.803-0.633,5.792
		c-0.199,1.996-0.59,4.014-0.971,6.085c-0.195,1.035-0.367,2.088-0.602,3.132c-0.26,1.042-0.52,2.093-0.787,3.158
		c-0.271,1.055-0.512,2.134-0.82,3.197c-0.326,1.063-0.654,2.137-0.99,3.205c-0.615,2.172-1.432,4.305-2.248,6.451
		c-0.754,2.166-1.773,4.258-2.678,6.396c-0.938,2.125-2.043,4.184-3.066,6.281c-2.268,4.082-4.625,8.111-7.273,11.869
		c-2.553,3.816-5.42,7.322-8.215,10.672c-2.875,3.287-5.758,6.377-8.672,9.117c-1.416,1.41-2.9,2.676-4.275,3.953
		c-1.436,1.215-2.781,2.438-4.15,3.518c-2.67,2.242-5.271,4.104-7.575,5.746c-2.328,1.605-4.381,2.973-6.115,4.025
		c-1.721,1.074-3.123,1.838-4.076,2.359C426.305,479.777,425.786,480.025,425.786,480.025"/>
	<path fill="#FFFFFF" d="M66.249,245.81c0,0,2.479-0.745,6.326-1.182c0.961-0.116,2.005-0.211,3.112-0.27
		c1.108-0.059,2.281-0.108,3.494-0.083c1.215,0.023,2.472,0.043,3.747,0.174c1.273,0.112,2.564,0.289,3.854,0.496
		c1.28,0.256,2.558,0.538,3.794,0.91c0.309,0.093,0.62,0.183,0.926,0.274c0.302,0.11,0.6,0.221,0.898,0.33
		c0.598,0.207,1.174,0.463,1.74,0.709c1.133,0.49,2.176,1.092,3.131,1.698c0.472,0.313,0.919,0.647,1.352,0.962
		c0.41,0.337,0.793,0.687,1.166,1.009c0.711,0.688,1.327,1.353,1.795,2.003c0.518,0.607,0.819,1.245,1.127,1.717
		c0.28,0.496,0.436,0.919,0.567,1.189c0.125,0.273,0.192,0.419,0.192,0.419s-0.393-0.522-1.075-1.389
		c-0.389-0.402-0.79-0.939-1.366-1.443c-0.541-0.542-1.218-1.069-1.952-1.639c-0.388-0.257-0.784-0.538-1.205-0.806
		c-0.438-0.244-0.87-0.522-1.341-0.774c-0.941-0.488-1.965-0.95-3.048-1.366c-1.083-0.42-2.233-0.768-3.414-1.09
		c-1.18-0.332-2.404-0.575-3.631-0.802c-1.231-0.221-2.471-0.415-3.701-0.543c-1.227-0.136-2.44-0.263-3.619-0.337
		c-1.181-0.069-2.324-0.141-3.413-0.176c-1.084-0.024-2.115-0.059-3.07-0.065C68.825,245.707,66.249,245.81,66.249,245.81"/>
	<path fill="#71B62C" d="M217.883,326.872c-0.08,0.172-0.438,0.861-1.126,2.159c-0.186,0.356-0.371,0.702-0.558,1.046
		c-0.172,0.331-0.345,0.662-0.529,0.995c-0.356,0.662-0.729,1.325-1.087,1.987c-0.356,0.662-0.729,1.312-1.086,1.946
		c1.907-3.562,3.272-6.121,3.937-7.354c0.011-0.014,0.025-0.026,0.025-0.039C217.683,327.203,217.815,326.949,217.883,326.872z"/>
	<g>
		<path fill="#F59E1F" d="M202.366,245.371c-0.147-0.079-0.287-0.152-0.423-0.223C202.087,245.219,202.224,245.298,202.366,245.371z
			"/>
		<path fill="#F59E1F" d="M251.074,393.133c-2.095,2.437-5.408,6.029-8.52,8.242c-0.371,0.264-0.836-0.148-0.624-0.544
			c5.128-8.97,29.268-56.776-0.212-113.312c0,0-17.101-30.85-39.353-42.148c9.135,4.876,42.453,27.213,15.239,81.964
			c-0.042,0.08-0.095,0.172-0.146,0.277c0,0.013-0.015,0.025-0.025,0.039c-0.041,0.081-0.081,0.161-0.134,0.251
			c-0.146,0.318-0.305,0.638-0.464,0.956c-0.198,0.397-0.411,0.808-0.637,1.218c-0.172,0.331-0.345,0.662-0.529,0.995
			c-0.356,0.662-0.729,1.325-1.087,1.987c-0.172,0.331-0.356,0.651-0.529,0.965c-0.172,0.331-0.357,0.666-0.557,0.981
			c-0.054,0.105-0.118,0.213-0.185,0.331c-0.307,0.53-0.609,1.062-0.915,1.579c-0.251,0.437-0.505,0.874-0.769,1.311
			c-4.041,6.744-8.943,13.924-14.84,21.568c0,0-9.38,9.992-11.831,11.782c-2.545,1.88-5.021,3.735-7.433,5.562
			c-5.169,3.949-10.03,7.793-14.603,11.557l-4.252,3.55c-18.271,15.449-31.573,29.321-41.247,41.46
			c-0.025,0.012-0.025,0.023-0.039,0.037c-10.136,11.635-20.258,26.711-24.048,43.406c0,0.014,0,0.027-0.014,0.053
			c-2.227,8.467-1.564,12.959-1.564,12.959l0.015-0.014c-0.054,3.684,0.265,7.395,0.994,11.156c0,0,31.413,21.955,79.377-10.465
			c41.936-28.355,72.503-83.806,79.524-97.307C251.868,393.144,251.352,392.788,251.074,393.133z"/>
	</g>
	<path fill="#FFFFFF" d="M245.938,309.638c0,0,0.207,0.995,0.444,2.895c0.229,1.894,0.495,4.687,0.541,8.261
		c0.071,3.573-0.114,7.915-0.592,12.876c-0.445,4.972-1.393,10.533-2.795,16.517c-1.346,6.005-3.399,12.36-5.898,18.956
		c-2.511,6.596-5.716,13.322-9.376,20.095c-3.83,6.666-7.931,13.511-12.807,19.954c-1.213,1.613-2.343,3.305-3.638,4.871
		c-1.276,1.588-2.56,3.172-3.844,4.76l-1.928,2.387l-2.039,2.293l-4.082,4.598c-1.334,1.557-2.837,2.961-4.254,4.434
		c-1.436,1.459-2.873,2.912-4.304,4.367c-2.932,2.838-5.955,5.557-8.899,8.307c-3.009,2.674-6.105,5.203-9.126,7.748
		c-3.037,2.523-6.196,4.811-9.215,7.166c-3.003,2.385-6.134,4.484-9.151,6.6c-1.516,1.051-3.01,2.09-4.491,3.113
		c-1.472,1.037-3.006,1.939-4.478,2.9c-2.957,1.883-5.837,3.709-8.625,5.48c-2.855,1.65-5.616,3.242-8.263,4.771
		c-1.327,0.764-2.622,1.51-3.893,2.238c-1.259,0.744-2.509,1.438-3.754,2.059c-2.477,1.279-4.824,2.488-7.03,3.631
		c-2.206,1.133-4.271,2.193-6.183,3.174c-1.939,0.914-3.726,1.758-5.337,2.518c-3.216,1.529-5.769,2.672-7.495,3.477
		c-1.733,0.799-2.657,1.225-2.657,1.225s0.89-0.496,2.561-1.418s4.1-2.299,7.233-3.988c1.56-0.844,3.289-1.779,5.175-2.803
		c1.845-1.082,3.845-2.258,5.979-3.51c4.258-2.52,9.097-5.291,14.205-8.6c2.57-1.621,5.244-3.314,8.012-5.068
		c2.71-1.84,5.51-3.746,8.39-5.699c1.431-0.986,2.922-1.932,4.354-3c1.435-1.059,2.889-2.135,4.355-3.217
		c2.917-2.199,6.005-4.293,8.922-6.719c2.946-2.385,6.028-4.693,8.984-7.236c2.925-2.576,5.949-5.111,8.917-7.754
		c2.88-2.732,5.845-5.426,8.717-8.232c2.777-2.904,5.669-5.719,8.374-8.707l4.039-4.492l2.017-2.25l1.907-2.332
		c1.267-1.551,2.537-3.102,3.799-4.646c1.282-1.533,2.399-3.186,3.599-4.762c4.804-6.313,8.999-12.893,12.854-19.383
		c1.78-3.319,3.673-6.524,5.217-9.812c0.788-1.633,1.636-3.228,2.357-4.845c0.711-1.627,1.412-3.233,2.106-4.819
		c2.608-6.402,4.885-12.562,6.448-18.408c1.58-5.83,2.832-11.251,3.552-16.128c0.744-4.864,1.17-9.152,1.298-12.695
		c0.122-3.54,0.129-6.333,0.025-8.234C246.067,310.647,245.938,309.638,245.938,309.638"/>
	<path fill="#FFFFFF" d="M173.414,358.836c0,0-0.497,3.71-1.241,9.281c-0.389,2.775-0.843,6.011-1.327,9.477
		c-0.237,1.735-0.479,3.523-0.73,5.348c-0.232,1.815-0.469,3.667-0.708,5.515c-0.211,1.85-0.479,3.695-0.65,5.521
		c-0.161,1.822-0.433,3.609-0.547,5.35c-0.135,1.736-0.328,3.412-0.395,5.008c-0.093,1.597-0.208,3.103-0.208,4.492
		c-0.023,1.395-0.087,2.676-0.013,3.801c0.067,1.125,0.008,2.139,0.169,2.932c0.225,1.607,0.332,2.549,0.332,2.549
		s-0.28-0.885-0.724-2.486c-0.26-0.791-0.319-1.791-0.528-2.928c-0.221-1.139-0.316-2.428-0.398-3.838
		c-0.129-1.417-0.151-2.944-0.144-4.566c-0.033-1.626,0.041-3.326,0.128-5.088c0.062-1.764,0.217-3.579,0.377-5.422
		c0.156-1.846,0.396-3.706,0.595-5.575c0.261-1.858,0.521-3.717,0.78-5.543c0.283-1.829,0.6-3.616,0.907-5.35
		c0.635-3.457,1.299-6.671,1.939-9.408c0.619-2.744,1.26-5.002,1.67-6.59C173.129,359.732,173.414,358.836,173.414,358.836"/>
	<path fill="#FFFFFF" d="M142.479,393.916c0,0-1.454,3.45-3.629,8.631c-1.103,2.578-2.384,5.582-3.758,8.805
		c-0.685,1.611-1.386,3.273-2.104,4.967c-0.701,1.695-1.415,3.416-2.126,5.139c-0.69,1.729-1.433,3.441-2.074,5.154
		c-0.631,1.719-1.362,3.375-1.926,5.025c-0.586,1.639-1.209,3.209-1.691,4.73c-0.509,1.516-1.01,2.941-1.376,4.279
		c-0.387,1.342-0.784,2.562-1.007,3.666c-0.229,1.104-0.551,2.066-0.604,2.873c-0.202,1.609-0.347,2.549-0.347,2.549
		s-0.037-0.926-0.046-2.588c-0.045-0.834,0.161-1.811,0.256-2.965c0.083-1.154,0.327-2.426,0.619-3.809
		c0.245-1.404,0.623-2.885,1.056-4.445c0.394-1.578,0.909-3.199,1.453-4.877c0.524-1.686,1.145-3.398,1.784-5.137
		c0.632-1.738,1.35-3.471,2.031-5.223c0.737-1.727,1.474-3.451,2.204-5.148c0.749-1.688,1.523-3.332,2.274-4.924
		c1.516-3.174,2.996-6.101,4.334-8.573c1.313-2.485,2.521-4.499,3.334-5.926C141.966,394.705,142.479,393.916,142.479,393.916"/>
	<path fill="#FFFFFF" d="M126.2,500.488c0,0,3.713-0.488,9.282-1.223c2.785-0.348,6.023-0.756,9.5-1.195
		c1.734-0.221,3.525-0.453,5.35-0.688c1.816-0.246,3.664-0.502,5.51-0.756c1.841-0.277,3.693-0.5,5.5-0.809
		c1.799-0.322,3.599-0.525,5.307-0.871c1.712-0.322,3.381-0.572,4.938-0.926c1.563-0.324,3.048-0.609,4.392-0.971
		c1.352-0.342,2.604-0.613,3.671-0.979c1.069-0.361,2.062-0.566,2.784-0.928c1.492-0.637,2.377-0.986,2.377-0.986
		s-0.783,0.498-2.212,1.348c-0.698,0.459-1.646,0.773-2.69,1.273c-1.039,0.51-2.258,0.939-3.6,1.389
		c-1.334,0.494-2.805,0.912-4.371,1.324c-1.56,0.459-3.221,0.832-4.945,1.205c-1.718,0.4-3.511,0.727-5.333,1.053
		c-1.821,0.332-3.678,0.582-5.537,0.879c-1.861,0.234-3.725,0.471-5.555,0.695c-1.836,0.201-3.646,0.365-5.4,0.52
		c-3.502,0.287-6.778,0.49-9.59,0.58c-2.809,0.117-5.155,0.092-6.794,0.109C127.141,500.529,126.2,500.488,126.2,500.488"/>
</g>
</svg>
